M48
; DRILL file {KiCad (5.1.0)-1} date 6/20/2019 12:19:08 PM
; FORMAT={-:-/ absolute / inch / decimal}
; #@! TF.CreationDate,2019-06-20T12:19:08-04:00
; #@! TF.GenerationSoftware,Kicad,Pcbnew,(5.1.0)-1
FMAT,2
INCH
T1C0.0157
T2C0.0394
T3C0.1260
%
G90
G05
T1
X5.374Y-2.5591
X5.4264Y-2.7661
X5.9252Y-2.6378
X5.9449Y-2.7559
X6.0177Y-2.7894
X6.2205Y-2.7953
X6.4862Y-2.6181
X6.5748Y-2.628
T2
X6.0149Y-2.63
X6.06Y-2.53
X6.06Y-2.73
X6.1051Y-2.63
X6.1502Y-2.53
X6.1502Y-2.73
X6.1952Y-2.63
X6.2403Y-2.53
X6.2403Y-2.73
X6.2854Y-2.63
X6.3305Y-2.53
X6.3305Y-2.73
X6.3756Y-2.63
X6.4206Y-2.53
X6.4206Y-2.73
X5.4189Y-2.2276
X5.4189Y-2.4677
X5.4189Y-2.6843
X5.4976Y-2.326
X5.4976Y-2.5425
T3
X5.7378Y-2.63
X6.722Y-2.63
T0
M30
