G04 #@! TF.GenerationSoftware,KiCad,Pcbnew,(5.1.0)-1*
G04 #@! TF.CreationDate,2019-06-20T12:19:29-04:00*
G04 #@! TF.ProjectId,HD15-to-SCART,48443135-2d74-46f2-9d53-434152542e6b,rev?*
G04 #@! TF.SameCoordinates,Original*
G04 #@! TF.FileFunction,Copper,L1,Top*
G04 #@! TF.FilePolarity,Positive*
%FSLAX46Y46*%
G04 Gerber Fmt 4.6, Leading zero omitted, Abs format (unit mm)*
G04 Created by KiCad (PCBNEW (5.1.0)-1) date 2019-06-20 12:19:29*
%MOMM*%
%LPD*%
G04 APERTURE LIST*
%ADD10R,2.500000X4.000000*%
%ADD11O,3.016000X1.508000*%
%ADD12R,1.600000X1.600000*%
%ADD13C,1.600000*%
%ADD14C,4.000000*%
%ADD15C,0.800000*%
%ADD16C,0.250000*%
%ADD17C,0.254000*%
G04 APERTURE END LIST*
D10*
X135696000Y-73660000D03*
X139496000Y-73660000D03*
X143296000Y-73660000D03*
X147096000Y-73660000D03*
X150896000Y-73660000D03*
X154696000Y-73660000D03*
X158496000Y-73660000D03*
X162296000Y-73660000D03*
X166096000Y-73660000D03*
X169896000Y-73660000D03*
D11*
X137640000Y-68180000D03*
X137640000Y-62680000D03*
X137640000Y-56580000D03*
X139640000Y-59080000D03*
X139640000Y-64580000D03*
D12*
X153924000Y-69342000D03*
D13*
X156214000Y-69342000D03*
X158504000Y-69342000D03*
X160794000Y-69342000D03*
X163084000Y-69342000D03*
X152779000Y-66802000D03*
X155069000Y-66802000D03*
X157359000Y-66802000D03*
X159649000Y-66802000D03*
X161939000Y-66802000D03*
X153924000Y-64262000D03*
X156214000Y-64262000D03*
X158504000Y-64262000D03*
X160794000Y-64262000D03*
X163084000Y-64262000D03*
D14*
X170739000Y-66802000D03*
X145739000Y-66802000D03*
D15*
X150500000Y-67000000D03*
X152850000Y-70850000D03*
X136500000Y-65000000D03*
X137830000Y-70260000D03*
X151000000Y-70000000D03*
X158000000Y-71000000D03*
X167000000Y-66750000D03*
X164750000Y-66500000D03*
D16*
X152842000Y-69342000D02*
X153924000Y-69342000D01*
X150500000Y-67000000D02*
X152842000Y-69342000D01*
X154706000Y-70850000D02*
X156214000Y-69342000D01*
X152850000Y-70850000D02*
X154706000Y-70850000D01*
X139496000Y-71410000D02*
X139000000Y-70914000D01*
X139496000Y-73660000D02*
X139496000Y-71410000D01*
X138484000Y-70914000D02*
X137830000Y-70260000D01*
X139000000Y-70914000D02*
X138484000Y-70914000D01*
X166096000Y-71410000D02*
X165500000Y-70814000D01*
X166096000Y-73660000D02*
X166096000Y-71410000D01*
X164556000Y-70814000D02*
X163084000Y-69342000D01*
X165500000Y-70814000D02*
X164556000Y-70814000D01*
X160891000Y-61875000D02*
X158504000Y-64262000D01*
X164275000Y-61875000D02*
X160891000Y-61875000D01*
X167750000Y-65350000D02*
X164275000Y-61875000D01*
X167750000Y-69264000D02*
X167750000Y-65350000D01*
X169896000Y-73660000D02*
X169896000Y-71410000D01*
X169896000Y-71410000D02*
X167750000Y-69264000D01*
X139668000Y-59052000D02*
X139668000Y-58888000D01*
X135696000Y-71410000D02*
X135200000Y-70914000D01*
X135200000Y-70914000D02*
X135200000Y-62275000D01*
X135200000Y-62275000D02*
X138395000Y-59080000D01*
X138395000Y-59080000D02*
X139640000Y-59080000D01*
X135696000Y-73660000D02*
X135696000Y-71410000D01*
X139640000Y-59080000D02*
X139668000Y-59052000D01*
X139668000Y-64608000D02*
X139640000Y-64580000D01*
X139668000Y-69282000D02*
X139668000Y-64608000D01*
X143296000Y-73660000D02*
X143296000Y-72910000D01*
X143296000Y-72910000D02*
X139668000Y-69282000D01*
X162296000Y-73660000D02*
X162296000Y-72910000D01*
D17*
G36*
X136110580Y-69340499D02*
G01*
X136351881Y-69469477D01*
X136613709Y-69548902D01*
X136817770Y-69569000D01*
X138462230Y-69569000D01*
X138666291Y-69548902D01*
X138928119Y-69469477D01*
X138930317Y-69468302D01*
X138946486Y-69521605D01*
X138962454Y-69574246D01*
X139033026Y-69706276D01*
X139072871Y-69754826D01*
X139127999Y-69822001D01*
X139157003Y-69845804D01*
X140334438Y-71023239D01*
X139781750Y-71025000D01*
X139623000Y-71183750D01*
X139623000Y-71373000D01*
X139369000Y-71373000D01*
X139369000Y-71183750D01*
X139210250Y-71025000D01*
X138246000Y-71021928D01*
X138121518Y-71034188D01*
X138001820Y-71070498D01*
X137891506Y-71129463D01*
X137794815Y-71208815D01*
X137715463Y-71305506D01*
X137679386Y-71373000D01*
X137512614Y-71373000D01*
X137476537Y-71305506D01*
X137397185Y-71208815D01*
X137300494Y-71129463D01*
X137190180Y-71070498D01*
X137070482Y-71034188D01*
X136946000Y-71021928D01*
X136350326Y-71021928D01*
X136330974Y-70985723D01*
X136296031Y-70943146D01*
X136236001Y-70869999D01*
X136206997Y-70846196D01*
X135960000Y-70599199D01*
X135960000Y-69216921D01*
X136110580Y-69340499D01*
X136110580Y-69340499D01*
G37*
X136110580Y-69340499D02*
X136351881Y-69469477D01*
X136613709Y-69548902D01*
X136817770Y-69569000D01*
X138462230Y-69569000D01*
X138666291Y-69548902D01*
X138928119Y-69469477D01*
X138930317Y-69468302D01*
X138946486Y-69521605D01*
X138962454Y-69574246D01*
X139033026Y-69706276D01*
X139072871Y-69754826D01*
X139127999Y-69822001D01*
X139157003Y-69845804D01*
X140334438Y-71023239D01*
X139781750Y-71025000D01*
X139623000Y-71183750D01*
X139623000Y-71373000D01*
X139369000Y-71373000D01*
X139369000Y-71183750D01*
X139210250Y-71025000D01*
X138246000Y-71021928D01*
X138121518Y-71034188D01*
X138001820Y-71070498D01*
X137891506Y-71129463D01*
X137794815Y-71208815D01*
X137715463Y-71305506D01*
X137679386Y-71373000D01*
X137512614Y-71373000D01*
X137476537Y-71305506D01*
X137397185Y-71208815D01*
X137300494Y-71129463D01*
X137190180Y-71070498D01*
X137070482Y-71034188D01*
X136946000Y-71021928D01*
X136350326Y-71021928D01*
X136330974Y-70985723D01*
X136296031Y-70943146D01*
X136236001Y-70869999D01*
X136206997Y-70846196D01*
X135960000Y-70599199D01*
X135960000Y-69216921D01*
X136110580Y-69340499D01*
G36*
X166990001Y-65664803D02*
G01*
X166990000Y-69226677D01*
X166986324Y-69264000D01*
X166990000Y-69301322D01*
X166990000Y-69301332D01*
X167000997Y-69412985D01*
X167033946Y-69521605D01*
X167044454Y-69556246D01*
X167115026Y-69688276D01*
X167154871Y-69736826D01*
X167209999Y-69804001D01*
X167239003Y-69827804D01*
X168463106Y-71051907D01*
X168401820Y-71070498D01*
X168291506Y-71129463D01*
X168194815Y-71208815D01*
X168115463Y-71305506D01*
X168079386Y-71373000D01*
X167912614Y-71373000D01*
X167876537Y-71305506D01*
X167797185Y-71208815D01*
X167700494Y-71129463D01*
X167590180Y-71070498D01*
X167470482Y-71034188D01*
X167346000Y-71021928D01*
X166381750Y-71025000D01*
X166223000Y-71183750D01*
X166223000Y-71373000D01*
X165969000Y-71373000D01*
X165969000Y-71183750D01*
X165810250Y-71025000D01*
X164846000Y-71021928D01*
X164721518Y-71034188D01*
X164601820Y-71070498D01*
X164491506Y-71129463D01*
X164394815Y-71208815D01*
X164315463Y-71305506D01*
X164279386Y-71373000D01*
X164112614Y-71373000D01*
X164076537Y-71305506D01*
X163997185Y-71208815D01*
X163900494Y-71129463D01*
X163790180Y-71070498D01*
X163670482Y-71034188D01*
X163546000Y-71021928D01*
X161046000Y-71021928D01*
X160921518Y-71034188D01*
X160801820Y-71070498D01*
X160691506Y-71129463D01*
X160594815Y-71208815D01*
X160515463Y-71305506D01*
X160479386Y-71373000D01*
X160312614Y-71373000D01*
X160276537Y-71305506D01*
X160197185Y-71208815D01*
X160100494Y-71129463D01*
X159990180Y-71070498D01*
X159870482Y-71034188D01*
X159746000Y-71021928D01*
X157246000Y-71021928D01*
X157121518Y-71034188D01*
X157001820Y-71070498D01*
X156891506Y-71129463D01*
X156794815Y-71208815D01*
X156715463Y-71305506D01*
X156679386Y-71373000D01*
X156512614Y-71373000D01*
X156476537Y-71305506D01*
X156397185Y-71208815D01*
X156300494Y-71129463D01*
X156190180Y-71070498D01*
X156070482Y-71034188D01*
X155946000Y-71021928D01*
X155608873Y-71021928D01*
X155890114Y-70740688D01*
X156072665Y-70777000D01*
X156355335Y-70777000D01*
X156632574Y-70721853D01*
X156893727Y-70613680D01*
X157128759Y-70456637D01*
X157328637Y-70256759D01*
X157359000Y-70211317D01*
X157389363Y-70256759D01*
X157589241Y-70456637D01*
X157824273Y-70613680D01*
X158085426Y-70721853D01*
X158362665Y-70777000D01*
X158645335Y-70777000D01*
X158922574Y-70721853D01*
X159183727Y-70613680D01*
X159418759Y-70456637D01*
X159618637Y-70256759D01*
X159649000Y-70211317D01*
X159679363Y-70256759D01*
X159879241Y-70456637D01*
X160114273Y-70613680D01*
X160375426Y-70721853D01*
X160652665Y-70777000D01*
X160935335Y-70777000D01*
X161212574Y-70721853D01*
X161473727Y-70613680D01*
X161708759Y-70456637D01*
X161830694Y-70334702D01*
X162270903Y-70334702D01*
X162342486Y-70578671D01*
X162597996Y-70699571D01*
X162872184Y-70768300D01*
X163154512Y-70782217D01*
X163434130Y-70740787D01*
X163700292Y-70645603D01*
X163825514Y-70578671D01*
X163897097Y-70334702D01*
X163084000Y-69521605D01*
X162270903Y-70334702D01*
X161830694Y-70334702D01*
X161908637Y-70256759D01*
X161995372Y-70126951D01*
X162091298Y-70155097D01*
X162904395Y-69342000D01*
X163263605Y-69342000D01*
X164076702Y-70155097D01*
X164320671Y-70083514D01*
X164441571Y-69828004D01*
X164510300Y-69553816D01*
X164524217Y-69271488D01*
X164482787Y-68991870D01*
X164387603Y-68725708D01*
X164320671Y-68600486D01*
X164076702Y-68528903D01*
X163263605Y-69342000D01*
X162904395Y-69342000D01*
X162091298Y-68528903D01*
X161995372Y-68557049D01*
X161908637Y-68427241D01*
X161708759Y-68227363D01*
X161699941Y-68221471D01*
X161727184Y-68228300D01*
X162009512Y-68242217D01*
X162289130Y-68200787D01*
X162317449Y-68190660D01*
X162270903Y-68349298D01*
X163084000Y-69162395D01*
X163897097Y-68349298D01*
X163825514Y-68105329D01*
X163570004Y-67984429D01*
X163295816Y-67915700D01*
X163013488Y-67901783D01*
X162733870Y-67943213D01*
X162705551Y-67953340D01*
X162752097Y-67794702D01*
X161939000Y-66981605D01*
X161125903Y-67794702D01*
X161172706Y-67954217D01*
X160935335Y-67907000D01*
X160652665Y-67907000D01*
X160546609Y-67928096D01*
X160563759Y-67916637D01*
X160763637Y-67716759D01*
X160850372Y-67586951D01*
X160946298Y-67615097D01*
X161759395Y-66802000D01*
X162118605Y-66802000D01*
X162931702Y-67615097D01*
X163175671Y-67543514D01*
X163296571Y-67288004D01*
X163365300Y-67013816D01*
X163379217Y-66731488D01*
X163337787Y-66451870D01*
X163242603Y-66185708D01*
X163175671Y-66060486D01*
X162931702Y-65988903D01*
X162118605Y-66802000D01*
X161759395Y-66802000D01*
X160946298Y-65988903D01*
X160850372Y-66017049D01*
X160763637Y-65887241D01*
X160563759Y-65687363D01*
X160546609Y-65675904D01*
X160652665Y-65697000D01*
X160935335Y-65697000D01*
X161172706Y-65649783D01*
X161125903Y-65809298D01*
X161939000Y-66622395D01*
X162752097Y-65809298D01*
X162705294Y-65649783D01*
X162942665Y-65697000D01*
X163225335Y-65697000D01*
X163502574Y-65641853D01*
X163763727Y-65533680D01*
X163998759Y-65376637D01*
X164198637Y-65176759D01*
X164355680Y-64941727D01*
X164463853Y-64680574D01*
X164519000Y-64403335D01*
X164519000Y-64120665D01*
X164463853Y-63843426D01*
X164355680Y-63582273D01*
X164198637Y-63347241D01*
X163998759Y-63147363D01*
X163763727Y-62990320D01*
X163502574Y-62882147D01*
X163225335Y-62827000D01*
X162942665Y-62827000D01*
X162665426Y-62882147D01*
X162404273Y-62990320D01*
X162169241Y-63147363D01*
X161969363Y-63347241D01*
X161939000Y-63392683D01*
X161908637Y-63347241D01*
X161708759Y-63147363D01*
X161473727Y-62990320D01*
X161212574Y-62882147D01*
X161000783Y-62840019D01*
X161205802Y-62635000D01*
X163960199Y-62635000D01*
X166990001Y-65664803D01*
X166990001Y-65664803D01*
G37*
X166990001Y-65664803D02*
X166990000Y-69226677D01*
X166986324Y-69264000D01*
X166990000Y-69301322D01*
X166990000Y-69301332D01*
X167000997Y-69412985D01*
X167033946Y-69521605D01*
X167044454Y-69556246D01*
X167115026Y-69688276D01*
X167154871Y-69736826D01*
X167209999Y-69804001D01*
X167239003Y-69827804D01*
X168463106Y-71051907D01*
X168401820Y-71070498D01*
X168291506Y-71129463D01*
X168194815Y-71208815D01*
X168115463Y-71305506D01*
X168079386Y-71373000D01*
X167912614Y-71373000D01*
X167876537Y-71305506D01*
X167797185Y-71208815D01*
X167700494Y-71129463D01*
X167590180Y-71070498D01*
X167470482Y-71034188D01*
X167346000Y-71021928D01*
X166381750Y-71025000D01*
X166223000Y-71183750D01*
X166223000Y-71373000D01*
X165969000Y-71373000D01*
X165969000Y-71183750D01*
X165810250Y-71025000D01*
X164846000Y-71021928D01*
X164721518Y-71034188D01*
X164601820Y-71070498D01*
X164491506Y-71129463D01*
X164394815Y-71208815D01*
X164315463Y-71305506D01*
X164279386Y-71373000D01*
X164112614Y-71373000D01*
X164076537Y-71305506D01*
X163997185Y-71208815D01*
X163900494Y-71129463D01*
X163790180Y-71070498D01*
X163670482Y-71034188D01*
X163546000Y-71021928D01*
X161046000Y-71021928D01*
X160921518Y-71034188D01*
X160801820Y-71070498D01*
X160691506Y-71129463D01*
X160594815Y-71208815D01*
X160515463Y-71305506D01*
X160479386Y-71373000D01*
X160312614Y-71373000D01*
X160276537Y-71305506D01*
X160197185Y-71208815D01*
X160100494Y-71129463D01*
X159990180Y-71070498D01*
X159870482Y-71034188D01*
X159746000Y-71021928D01*
X157246000Y-71021928D01*
X157121518Y-71034188D01*
X157001820Y-71070498D01*
X156891506Y-71129463D01*
X156794815Y-71208815D01*
X156715463Y-71305506D01*
X156679386Y-71373000D01*
X156512614Y-71373000D01*
X156476537Y-71305506D01*
X156397185Y-71208815D01*
X156300494Y-71129463D01*
X156190180Y-71070498D01*
X156070482Y-71034188D01*
X155946000Y-71021928D01*
X155608873Y-71021928D01*
X155890114Y-70740688D01*
X156072665Y-70777000D01*
X156355335Y-70777000D01*
X156632574Y-70721853D01*
X156893727Y-70613680D01*
X157128759Y-70456637D01*
X157328637Y-70256759D01*
X157359000Y-70211317D01*
X157389363Y-70256759D01*
X157589241Y-70456637D01*
X157824273Y-70613680D01*
X158085426Y-70721853D01*
X158362665Y-70777000D01*
X158645335Y-70777000D01*
X158922574Y-70721853D01*
X159183727Y-70613680D01*
X159418759Y-70456637D01*
X159618637Y-70256759D01*
X159649000Y-70211317D01*
X159679363Y-70256759D01*
X159879241Y-70456637D01*
X160114273Y-70613680D01*
X160375426Y-70721853D01*
X160652665Y-70777000D01*
X160935335Y-70777000D01*
X161212574Y-70721853D01*
X161473727Y-70613680D01*
X161708759Y-70456637D01*
X161830694Y-70334702D01*
X162270903Y-70334702D01*
X162342486Y-70578671D01*
X162597996Y-70699571D01*
X162872184Y-70768300D01*
X163154512Y-70782217D01*
X163434130Y-70740787D01*
X163700292Y-70645603D01*
X163825514Y-70578671D01*
X163897097Y-70334702D01*
X163084000Y-69521605D01*
X162270903Y-70334702D01*
X161830694Y-70334702D01*
X161908637Y-70256759D01*
X161995372Y-70126951D01*
X162091298Y-70155097D01*
X162904395Y-69342000D01*
X163263605Y-69342000D01*
X164076702Y-70155097D01*
X164320671Y-70083514D01*
X164441571Y-69828004D01*
X164510300Y-69553816D01*
X164524217Y-69271488D01*
X164482787Y-68991870D01*
X164387603Y-68725708D01*
X164320671Y-68600486D01*
X164076702Y-68528903D01*
X163263605Y-69342000D01*
X162904395Y-69342000D01*
X162091298Y-68528903D01*
X161995372Y-68557049D01*
X161908637Y-68427241D01*
X161708759Y-68227363D01*
X161699941Y-68221471D01*
X161727184Y-68228300D01*
X162009512Y-68242217D01*
X162289130Y-68200787D01*
X162317449Y-68190660D01*
X162270903Y-68349298D01*
X163084000Y-69162395D01*
X163897097Y-68349298D01*
X163825514Y-68105329D01*
X163570004Y-67984429D01*
X163295816Y-67915700D01*
X163013488Y-67901783D01*
X162733870Y-67943213D01*
X162705551Y-67953340D01*
X162752097Y-67794702D01*
X161939000Y-66981605D01*
X161125903Y-67794702D01*
X161172706Y-67954217D01*
X160935335Y-67907000D01*
X160652665Y-67907000D01*
X160546609Y-67928096D01*
X160563759Y-67916637D01*
X160763637Y-67716759D01*
X160850372Y-67586951D01*
X160946298Y-67615097D01*
X161759395Y-66802000D01*
X162118605Y-66802000D01*
X162931702Y-67615097D01*
X163175671Y-67543514D01*
X163296571Y-67288004D01*
X163365300Y-67013816D01*
X163379217Y-66731488D01*
X163337787Y-66451870D01*
X163242603Y-66185708D01*
X163175671Y-66060486D01*
X162931702Y-65988903D01*
X162118605Y-66802000D01*
X161759395Y-66802000D01*
X160946298Y-65988903D01*
X160850372Y-66017049D01*
X160763637Y-65887241D01*
X160563759Y-65687363D01*
X160546609Y-65675904D01*
X160652665Y-65697000D01*
X160935335Y-65697000D01*
X161172706Y-65649783D01*
X161125903Y-65809298D01*
X161939000Y-66622395D01*
X162752097Y-65809298D01*
X162705294Y-65649783D01*
X162942665Y-65697000D01*
X163225335Y-65697000D01*
X163502574Y-65641853D01*
X163763727Y-65533680D01*
X163998759Y-65376637D01*
X164198637Y-65176759D01*
X164355680Y-64941727D01*
X164463853Y-64680574D01*
X164519000Y-64403335D01*
X164519000Y-64120665D01*
X164463853Y-63843426D01*
X164355680Y-63582273D01*
X164198637Y-63347241D01*
X163998759Y-63147363D01*
X163763727Y-62990320D01*
X163502574Y-62882147D01*
X163225335Y-62827000D01*
X162942665Y-62827000D01*
X162665426Y-62882147D01*
X162404273Y-62990320D01*
X162169241Y-63147363D01*
X161969363Y-63347241D01*
X161939000Y-63392683D01*
X161908637Y-63347241D01*
X161708759Y-63147363D01*
X161473727Y-62990320D01*
X161212574Y-62882147D01*
X161000783Y-62840019D01*
X161205802Y-62635000D01*
X163960199Y-62635000D01*
X166990001Y-65664803D01*
G36*
X135554130Y-56165785D02*
G01*
X135539714Y-56238186D01*
X135662323Y-56453000D01*
X137513000Y-56453000D01*
X137513000Y-56433000D01*
X137767000Y-56433000D01*
X137767000Y-56453000D01*
X139617677Y-56453000D01*
X139740286Y-56238186D01*
X139725870Y-56165785D01*
X139670622Y-56035000D01*
X173490001Y-56035000D01*
X173490000Y-71373000D01*
X171712614Y-71373000D01*
X171676537Y-71305506D01*
X171597185Y-71208815D01*
X171500494Y-71129463D01*
X171390180Y-71070498D01*
X171270482Y-71034188D01*
X171146000Y-71021928D01*
X170550326Y-71021928D01*
X170530974Y-70985724D01*
X170436001Y-70869999D01*
X170407003Y-70846201D01*
X168510000Y-68949199D01*
X168510000Y-68649499D01*
X169071106Y-68649499D01*
X169287228Y-69016258D01*
X169747105Y-69256938D01*
X170245098Y-69403275D01*
X170762071Y-69449648D01*
X171278159Y-69394273D01*
X171773526Y-69239279D01*
X172190772Y-69016258D01*
X172406894Y-68649499D01*
X170739000Y-66981605D01*
X169071106Y-68649499D01*
X168510000Y-68649499D01*
X168510000Y-68226191D01*
X168524742Y-68253772D01*
X168891501Y-68469894D01*
X170559395Y-66802000D01*
X170918605Y-66802000D01*
X172586499Y-68469894D01*
X172953258Y-68253772D01*
X173193938Y-67793895D01*
X173340275Y-67295902D01*
X173386648Y-66778929D01*
X173331273Y-66262841D01*
X173176279Y-65767474D01*
X172953258Y-65350228D01*
X172586499Y-65134106D01*
X170918605Y-66802000D01*
X170559395Y-66802000D01*
X168891501Y-65134106D01*
X168524742Y-65350228D01*
X168511083Y-65376327D01*
X168513676Y-65349999D01*
X168510000Y-65312676D01*
X168510000Y-65312667D01*
X168499003Y-65201014D01*
X168455546Y-65057753D01*
X168400356Y-64954501D01*
X169071106Y-64954501D01*
X170739000Y-66622395D01*
X172406894Y-64954501D01*
X172190772Y-64587742D01*
X171730895Y-64347062D01*
X171232902Y-64200725D01*
X170715929Y-64154352D01*
X170199841Y-64209727D01*
X169704474Y-64364721D01*
X169287228Y-64587742D01*
X169071106Y-64954501D01*
X168400356Y-64954501D01*
X168393528Y-64941727D01*
X168384974Y-64925723D01*
X168313799Y-64838997D01*
X168290001Y-64809999D01*
X168261003Y-64786201D01*
X164838804Y-61364003D01*
X164815001Y-61334999D01*
X164699276Y-61240026D01*
X164567247Y-61169454D01*
X164423986Y-61125997D01*
X164312333Y-61115000D01*
X164312322Y-61115000D01*
X164275000Y-61111324D01*
X164237678Y-61115000D01*
X160928325Y-61115000D01*
X160891000Y-61111324D01*
X160853675Y-61115000D01*
X160853667Y-61115000D01*
X160742014Y-61125997D01*
X160598753Y-61169454D01*
X160466724Y-61240026D01*
X160350999Y-61334999D01*
X160327201Y-61363997D01*
X158827886Y-62863312D01*
X158645335Y-62827000D01*
X158362665Y-62827000D01*
X158085426Y-62882147D01*
X157824273Y-62990320D01*
X157589241Y-63147363D01*
X157389363Y-63347241D01*
X157359000Y-63392683D01*
X157328637Y-63347241D01*
X157128759Y-63147363D01*
X156893727Y-62990320D01*
X156632574Y-62882147D01*
X156355335Y-62827000D01*
X156072665Y-62827000D01*
X155795426Y-62882147D01*
X155534273Y-62990320D01*
X155299241Y-63147363D01*
X155099363Y-63347241D01*
X155069000Y-63392683D01*
X155038637Y-63347241D01*
X154838759Y-63147363D01*
X154603727Y-62990320D01*
X154342574Y-62882147D01*
X154065335Y-62827000D01*
X153782665Y-62827000D01*
X153505426Y-62882147D01*
X153244273Y-62990320D01*
X153009241Y-63147363D01*
X152809363Y-63347241D01*
X152652320Y-63582273D01*
X152544147Y-63843426D01*
X152489000Y-64120665D01*
X152489000Y-64403335D01*
X152544147Y-64680574D01*
X152652320Y-64941727D01*
X152809363Y-65176759D01*
X153009241Y-65376637D01*
X153018059Y-65382529D01*
X152990816Y-65375700D01*
X152708488Y-65361783D01*
X152428870Y-65403213D01*
X152162708Y-65498397D01*
X152037486Y-65565329D01*
X151965903Y-65809298D01*
X152779000Y-66622395D01*
X153592097Y-65809298D01*
X153545294Y-65649783D01*
X153782665Y-65697000D01*
X154065335Y-65697000D01*
X154302706Y-65649783D01*
X154255903Y-65809298D01*
X155069000Y-66622395D01*
X155882097Y-65809298D01*
X155835294Y-65649783D01*
X156072665Y-65697000D01*
X156355335Y-65697000D01*
X156592706Y-65649783D01*
X156545903Y-65809298D01*
X157359000Y-66622395D01*
X158172097Y-65809298D01*
X158125294Y-65649783D01*
X158362665Y-65697000D01*
X158645335Y-65697000D01*
X158751391Y-65675904D01*
X158734241Y-65687363D01*
X158534363Y-65887241D01*
X158447628Y-66017049D01*
X158351702Y-65988903D01*
X157538605Y-66802000D01*
X158351702Y-67615097D01*
X158447628Y-67586951D01*
X158534363Y-67716759D01*
X158734241Y-67916637D01*
X158751391Y-67928096D01*
X158645335Y-67907000D01*
X158362665Y-67907000D01*
X158125294Y-67954217D01*
X158172097Y-67794702D01*
X157359000Y-66981605D01*
X156545903Y-67794702D01*
X156592706Y-67954217D01*
X156355335Y-67907000D01*
X156072665Y-67907000D01*
X155835294Y-67954217D01*
X155882097Y-67794702D01*
X155069000Y-66981605D01*
X154255903Y-67794702D01*
X154287951Y-67903928D01*
X153560049Y-67903928D01*
X153592097Y-67794702D01*
X152779000Y-66981605D01*
X152764858Y-66995748D01*
X152585253Y-66816143D01*
X152599395Y-66802000D01*
X152958605Y-66802000D01*
X153771702Y-67615097D01*
X153924000Y-67570411D01*
X154076298Y-67615097D01*
X154889395Y-66802000D01*
X155248605Y-66802000D01*
X156061702Y-67615097D01*
X156214000Y-67570411D01*
X156366298Y-67615097D01*
X157179395Y-66802000D01*
X156366298Y-65988903D01*
X156214000Y-66033589D01*
X156061702Y-65988903D01*
X155248605Y-66802000D01*
X154889395Y-66802000D01*
X154076298Y-65988903D01*
X153924000Y-66033589D01*
X153771702Y-65988903D01*
X152958605Y-66802000D01*
X152599395Y-66802000D01*
X151786298Y-65988903D01*
X151542329Y-66060486D01*
X151421429Y-66315996D01*
X151384960Y-66461486D01*
X151303937Y-66340226D01*
X151159774Y-66196063D01*
X150990256Y-66082795D01*
X150801898Y-66004774D01*
X150601939Y-65965000D01*
X150398061Y-65965000D01*
X150198102Y-66004774D01*
X150009744Y-66082795D01*
X149840226Y-66196063D01*
X149696063Y-66340226D01*
X149582795Y-66509744D01*
X149504774Y-66698102D01*
X149465000Y-66898061D01*
X149465000Y-67101939D01*
X149504774Y-67301898D01*
X149582795Y-67490256D01*
X149696063Y-67659774D01*
X149840226Y-67803937D01*
X150009744Y-67917205D01*
X150198102Y-67995226D01*
X150398061Y-68035000D01*
X150460199Y-68035000D01*
X152278201Y-69853003D01*
X152301999Y-69882001D01*
X152362500Y-69931653D01*
X152359744Y-69932795D01*
X152190226Y-70046063D01*
X152046063Y-70190226D01*
X151932795Y-70359744D01*
X151854774Y-70548102D01*
X151815000Y-70748061D01*
X151815000Y-70951939D01*
X151828922Y-71021928D01*
X149646000Y-71021928D01*
X149521518Y-71034188D01*
X149401820Y-71070498D01*
X149291506Y-71129463D01*
X149194815Y-71208815D01*
X149115463Y-71305506D01*
X149079386Y-71373000D01*
X148912614Y-71373000D01*
X148876537Y-71305506D01*
X148797185Y-71208815D01*
X148700494Y-71129463D01*
X148590180Y-71070498D01*
X148470482Y-71034188D01*
X148346000Y-71021928D01*
X145846000Y-71021928D01*
X145721518Y-71034188D01*
X145601820Y-71070498D01*
X145491506Y-71129463D01*
X145394815Y-71208815D01*
X145315463Y-71305506D01*
X145279386Y-71373000D01*
X145112614Y-71373000D01*
X145076537Y-71305506D01*
X144997185Y-71208815D01*
X144900494Y-71129463D01*
X144790180Y-71070498D01*
X144670482Y-71034188D01*
X144546000Y-71021928D01*
X142482730Y-71021928D01*
X140428000Y-68967199D01*
X140428000Y-68649499D01*
X144071106Y-68649499D01*
X144287228Y-69016258D01*
X144747105Y-69256938D01*
X145245098Y-69403275D01*
X145762071Y-69449648D01*
X146278159Y-69394273D01*
X146773526Y-69239279D01*
X147190772Y-69016258D01*
X147406894Y-68649499D01*
X145739000Y-66981605D01*
X144071106Y-68649499D01*
X140428000Y-68649499D01*
X140428000Y-66825071D01*
X143091352Y-66825071D01*
X143146727Y-67341159D01*
X143301721Y-67836526D01*
X143524742Y-68253772D01*
X143891501Y-68469894D01*
X145559395Y-66802000D01*
X145918605Y-66802000D01*
X147586499Y-68469894D01*
X147953258Y-68253772D01*
X148193938Y-67793895D01*
X148340275Y-67295902D01*
X148386648Y-66778929D01*
X148331273Y-66262841D01*
X148176279Y-65767474D01*
X147953258Y-65350228D01*
X147586499Y-65134106D01*
X145918605Y-66802000D01*
X145559395Y-66802000D01*
X143891501Y-65134106D01*
X143524742Y-65350228D01*
X143284062Y-65810105D01*
X143137725Y-66308098D01*
X143091352Y-66825071D01*
X140428000Y-66825071D01*
X140428000Y-65969000D01*
X140462230Y-65969000D01*
X140666291Y-65948902D01*
X140928119Y-65869477D01*
X141169420Y-65740499D01*
X141380923Y-65566923D01*
X141554499Y-65355420D01*
X141683477Y-65114119D01*
X141731896Y-64954501D01*
X144071106Y-64954501D01*
X145739000Y-66622395D01*
X147406894Y-64954501D01*
X147190772Y-64587742D01*
X146730895Y-64347062D01*
X146232902Y-64200725D01*
X145715929Y-64154352D01*
X145199841Y-64209727D01*
X144704474Y-64364721D01*
X144287228Y-64587742D01*
X144071106Y-64954501D01*
X141731896Y-64954501D01*
X141762902Y-64852291D01*
X141789720Y-64580000D01*
X141762902Y-64307709D01*
X141683477Y-64045881D01*
X141554499Y-63804580D01*
X141380923Y-63593077D01*
X141169420Y-63419501D01*
X140928119Y-63290523D01*
X140666291Y-63211098D01*
X140462230Y-63191000D01*
X139690490Y-63191000D01*
X139762902Y-62952291D01*
X139789720Y-62680000D01*
X139762902Y-62407709D01*
X139683477Y-62145881D01*
X139554499Y-61904580D01*
X139380923Y-61693077D01*
X139169420Y-61519501D01*
X138928119Y-61390523D01*
X138666291Y-61311098D01*
X138462230Y-61291000D01*
X137258801Y-61291000D01*
X138240082Y-60309719D01*
X138351881Y-60369477D01*
X138613709Y-60448902D01*
X138817770Y-60469000D01*
X140462230Y-60469000D01*
X140666291Y-60448902D01*
X140928119Y-60369477D01*
X141169420Y-60240499D01*
X141380923Y-60066923D01*
X141554499Y-59855420D01*
X141683477Y-59614119D01*
X141762902Y-59352291D01*
X141789720Y-59080000D01*
X141762902Y-58807709D01*
X141683477Y-58545881D01*
X141554499Y-58304580D01*
X141380923Y-58093077D01*
X141169420Y-57919501D01*
X140928119Y-57790523D01*
X140666291Y-57711098D01*
X140462230Y-57691000D01*
X139230795Y-57691000D01*
X139271284Y-57664354D01*
X139465974Y-57472369D01*
X139619469Y-57246091D01*
X139725870Y-56994215D01*
X139740286Y-56921814D01*
X139617677Y-56707000D01*
X137767000Y-56707000D01*
X137767000Y-57969000D01*
X138050265Y-57969000D01*
X137899077Y-58093077D01*
X137725501Y-58304580D01*
X137596523Y-58545881D01*
X137517098Y-58807709D01*
X137508861Y-58891337D01*
X134688998Y-61711201D01*
X134660000Y-61734999D01*
X134636202Y-61763997D01*
X134636201Y-61763998D01*
X134565026Y-61850724D01*
X134494454Y-61982754D01*
X134450998Y-62126015D01*
X134436324Y-62275000D01*
X134440001Y-62312332D01*
X134440000Y-70876678D01*
X134436324Y-70914000D01*
X134440000Y-70951322D01*
X134440000Y-70951332D01*
X134446953Y-71021928D01*
X134446000Y-71021928D01*
X134321518Y-71034188D01*
X134201820Y-71070498D01*
X134091506Y-71129463D01*
X133994815Y-71208815D01*
X133915463Y-71305506D01*
X133885000Y-71362497D01*
X133885000Y-56921814D01*
X135539714Y-56921814D01*
X135554130Y-56994215D01*
X135660531Y-57246091D01*
X135814026Y-57472369D01*
X136008716Y-57664354D01*
X136237120Y-57814668D01*
X136490460Y-57917534D01*
X136759000Y-57969000D01*
X137513000Y-57969000D01*
X137513000Y-56707000D01*
X135662323Y-56707000D01*
X135539714Y-56921814D01*
X133885000Y-56921814D01*
X133885000Y-56035000D01*
X135609378Y-56035000D01*
X135554130Y-56165785D01*
X135554130Y-56165785D01*
G37*
X135554130Y-56165785D02*
X135539714Y-56238186D01*
X135662323Y-56453000D01*
X137513000Y-56453000D01*
X137513000Y-56433000D01*
X137767000Y-56433000D01*
X137767000Y-56453000D01*
X139617677Y-56453000D01*
X139740286Y-56238186D01*
X139725870Y-56165785D01*
X139670622Y-56035000D01*
X173490001Y-56035000D01*
X173490000Y-71373000D01*
X171712614Y-71373000D01*
X171676537Y-71305506D01*
X171597185Y-71208815D01*
X171500494Y-71129463D01*
X171390180Y-71070498D01*
X171270482Y-71034188D01*
X171146000Y-71021928D01*
X170550326Y-71021928D01*
X170530974Y-70985724D01*
X170436001Y-70869999D01*
X170407003Y-70846201D01*
X168510000Y-68949199D01*
X168510000Y-68649499D01*
X169071106Y-68649499D01*
X169287228Y-69016258D01*
X169747105Y-69256938D01*
X170245098Y-69403275D01*
X170762071Y-69449648D01*
X171278159Y-69394273D01*
X171773526Y-69239279D01*
X172190772Y-69016258D01*
X172406894Y-68649499D01*
X170739000Y-66981605D01*
X169071106Y-68649499D01*
X168510000Y-68649499D01*
X168510000Y-68226191D01*
X168524742Y-68253772D01*
X168891501Y-68469894D01*
X170559395Y-66802000D01*
X170918605Y-66802000D01*
X172586499Y-68469894D01*
X172953258Y-68253772D01*
X173193938Y-67793895D01*
X173340275Y-67295902D01*
X173386648Y-66778929D01*
X173331273Y-66262841D01*
X173176279Y-65767474D01*
X172953258Y-65350228D01*
X172586499Y-65134106D01*
X170918605Y-66802000D01*
X170559395Y-66802000D01*
X168891501Y-65134106D01*
X168524742Y-65350228D01*
X168511083Y-65376327D01*
X168513676Y-65349999D01*
X168510000Y-65312676D01*
X168510000Y-65312667D01*
X168499003Y-65201014D01*
X168455546Y-65057753D01*
X168400356Y-64954501D01*
X169071106Y-64954501D01*
X170739000Y-66622395D01*
X172406894Y-64954501D01*
X172190772Y-64587742D01*
X171730895Y-64347062D01*
X171232902Y-64200725D01*
X170715929Y-64154352D01*
X170199841Y-64209727D01*
X169704474Y-64364721D01*
X169287228Y-64587742D01*
X169071106Y-64954501D01*
X168400356Y-64954501D01*
X168393528Y-64941727D01*
X168384974Y-64925723D01*
X168313799Y-64838997D01*
X168290001Y-64809999D01*
X168261003Y-64786201D01*
X164838804Y-61364003D01*
X164815001Y-61334999D01*
X164699276Y-61240026D01*
X164567247Y-61169454D01*
X164423986Y-61125997D01*
X164312333Y-61115000D01*
X164312322Y-61115000D01*
X164275000Y-61111324D01*
X164237678Y-61115000D01*
X160928325Y-61115000D01*
X160891000Y-61111324D01*
X160853675Y-61115000D01*
X160853667Y-61115000D01*
X160742014Y-61125997D01*
X160598753Y-61169454D01*
X160466724Y-61240026D01*
X160350999Y-61334999D01*
X160327201Y-61363997D01*
X158827886Y-62863312D01*
X158645335Y-62827000D01*
X158362665Y-62827000D01*
X158085426Y-62882147D01*
X157824273Y-62990320D01*
X157589241Y-63147363D01*
X157389363Y-63347241D01*
X157359000Y-63392683D01*
X157328637Y-63347241D01*
X157128759Y-63147363D01*
X156893727Y-62990320D01*
X156632574Y-62882147D01*
X156355335Y-62827000D01*
X156072665Y-62827000D01*
X155795426Y-62882147D01*
X155534273Y-62990320D01*
X155299241Y-63147363D01*
X155099363Y-63347241D01*
X155069000Y-63392683D01*
X155038637Y-63347241D01*
X154838759Y-63147363D01*
X154603727Y-62990320D01*
X154342574Y-62882147D01*
X154065335Y-62827000D01*
X153782665Y-62827000D01*
X153505426Y-62882147D01*
X153244273Y-62990320D01*
X153009241Y-63147363D01*
X152809363Y-63347241D01*
X152652320Y-63582273D01*
X152544147Y-63843426D01*
X152489000Y-64120665D01*
X152489000Y-64403335D01*
X152544147Y-64680574D01*
X152652320Y-64941727D01*
X152809363Y-65176759D01*
X153009241Y-65376637D01*
X153018059Y-65382529D01*
X152990816Y-65375700D01*
X152708488Y-65361783D01*
X152428870Y-65403213D01*
X152162708Y-65498397D01*
X152037486Y-65565329D01*
X151965903Y-65809298D01*
X152779000Y-66622395D01*
X153592097Y-65809298D01*
X153545294Y-65649783D01*
X153782665Y-65697000D01*
X154065335Y-65697000D01*
X154302706Y-65649783D01*
X154255903Y-65809298D01*
X155069000Y-66622395D01*
X155882097Y-65809298D01*
X155835294Y-65649783D01*
X156072665Y-65697000D01*
X156355335Y-65697000D01*
X156592706Y-65649783D01*
X156545903Y-65809298D01*
X157359000Y-66622395D01*
X158172097Y-65809298D01*
X158125294Y-65649783D01*
X158362665Y-65697000D01*
X158645335Y-65697000D01*
X158751391Y-65675904D01*
X158734241Y-65687363D01*
X158534363Y-65887241D01*
X158447628Y-66017049D01*
X158351702Y-65988903D01*
X157538605Y-66802000D01*
X158351702Y-67615097D01*
X158447628Y-67586951D01*
X158534363Y-67716759D01*
X158734241Y-67916637D01*
X158751391Y-67928096D01*
X158645335Y-67907000D01*
X158362665Y-67907000D01*
X158125294Y-67954217D01*
X158172097Y-67794702D01*
X157359000Y-66981605D01*
X156545903Y-67794702D01*
X156592706Y-67954217D01*
X156355335Y-67907000D01*
X156072665Y-67907000D01*
X155835294Y-67954217D01*
X155882097Y-67794702D01*
X155069000Y-66981605D01*
X154255903Y-67794702D01*
X154287951Y-67903928D01*
X153560049Y-67903928D01*
X153592097Y-67794702D01*
X152779000Y-66981605D01*
X152764858Y-66995748D01*
X152585253Y-66816143D01*
X152599395Y-66802000D01*
X152958605Y-66802000D01*
X153771702Y-67615097D01*
X153924000Y-67570411D01*
X154076298Y-67615097D01*
X154889395Y-66802000D01*
X155248605Y-66802000D01*
X156061702Y-67615097D01*
X156214000Y-67570411D01*
X156366298Y-67615097D01*
X157179395Y-66802000D01*
X156366298Y-65988903D01*
X156214000Y-66033589D01*
X156061702Y-65988903D01*
X155248605Y-66802000D01*
X154889395Y-66802000D01*
X154076298Y-65988903D01*
X153924000Y-66033589D01*
X153771702Y-65988903D01*
X152958605Y-66802000D01*
X152599395Y-66802000D01*
X151786298Y-65988903D01*
X151542329Y-66060486D01*
X151421429Y-66315996D01*
X151384960Y-66461486D01*
X151303937Y-66340226D01*
X151159774Y-66196063D01*
X150990256Y-66082795D01*
X150801898Y-66004774D01*
X150601939Y-65965000D01*
X150398061Y-65965000D01*
X150198102Y-66004774D01*
X150009744Y-66082795D01*
X149840226Y-66196063D01*
X149696063Y-66340226D01*
X149582795Y-66509744D01*
X149504774Y-66698102D01*
X149465000Y-66898061D01*
X149465000Y-67101939D01*
X149504774Y-67301898D01*
X149582795Y-67490256D01*
X149696063Y-67659774D01*
X149840226Y-67803937D01*
X150009744Y-67917205D01*
X150198102Y-67995226D01*
X150398061Y-68035000D01*
X150460199Y-68035000D01*
X152278201Y-69853003D01*
X152301999Y-69882001D01*
X152362500Y-69931653D01*
X152359744Y-69932795D01*
X152190226Y-70046063D01*
X152046063Y-70190226D01*
X151932795Y-70359744D01*
X151854774Y-70548102D01*
X151815000Y-70748061D01*
X151815000Y-70951939D01*
X151828922Y-71021928D01*
X149646000Y-71021928D01*
X149521518Y-71034188D01*
X149401820Y-71070498D01*
X149291506Y-71129463D01*
X149194815Y-71208815D01*
X149115463Y-71305506D01*
X149079386Y-71373000D01*
X148912614Y-71373000D01*
X148876537Y-71305506D01*
X148797185Y-71208815D01*
X148700494Y-71129463D01*
X148590180Y-71070498D01*
X148470482Y-71034188D01*
X148346000Y-71021928D01*
X145846000Y-71021928D01*
X145721518Y-71034188D01*
X145601820Y-71070498D01*
X145491506Y-71129463D01*
X145394815Y-71208815D01*
X145315463Y-71305506D01*
X145279386Y-71373000D01*
X145112614Y-71373000D01*
X145076537Y-71305506D01*
X144997185Y-71208815D01*
X144900494Y-71129463D01*
X144790180Y-71070498D01*
X144670482Y-71034188D01*
X144546000Y-71021928D01*
X142482730Y-71021928D01*
X140428000Y-68967199D01*
X140428000Y-68649499D01*
X144071106Y-68649499D01*
X144287228Y-69016258D01*
X144747105Y-69256938D01*
X145245098Y-69403275D01*
X145762071Y-69449648D01*
X146278159Y-69394273D01*
X146773526Y-69239279D01*
X147190772Y-69016258D01*
X147406894Y-68649499D01*
X145739000Y-66981605D01*
X144071106Y-68649499D01*
X140428000Y-68649499D01*
X140428000Y-66825071D01*
X143091352Y-66825071D01*
X143146727Y-67341159D01*
X143301721Y-67836526D01*
X143524742Y-68253772D01*
X143891501Y-68469894D01*
X145559395Y-66802000D01*
X145918605Y-66802000D01*
X147586499Y-68469894D01*
X147953258Y-68253772D01*
X148193938Y-67793895D01*
X148340275Y-67295902D01*
X148386648Y-66778929D01*
X148331273Y-66262841D01*
X148176279Y-65767474D01*
X147953258Y-65350228D01*
X147586499Y-65134106D01*
X145918605Y-66802000D01*
X145559395Y-66802000D01*
X143891501Y-65134106D01*
X143524742Y-65350228D01*
X143284062Y-65810105D01*
X143137725Y-66308098D01*
X143091352Y-66825071D01*
X140428000Y-66825071D01*
X140428000Y-65969000D01*
X140462230Y-65969000D01*
X140666291Y-65948902D01*
X140928119Y-65869477D01*
X141169420Y-65740499D01*
X141380923Y-65566923D01*
X141554499Y-65355420D01*
X141683477Y-65114119D01*
X141731896Y-64954501D01*
X144071106Y-64954501D01*
X145739000Y-66622395D01*
X147406894Y-64954501D01*
X147190772Y-64587742D01*
X146730895Y-64347062D01*
X146232902Y-64200725D01*
X145715929Y-64154352D01*
X145199841Y-64209727D01*
X144704474Y-64364721D01*
X144287228Y-64587742D01*
X144071106Y-64954501D01*
X141731896Y-64954501D01*
X141762902Y-64852291D01*
X141789720Y-64580000D01*
X141762902Y-64307709D01*
X141683477Y-64045881D01*
X141554499Y-63804580D01*
X141380923Y-63593077D01*
X141169420Y-63419501D01*
X140928119Y-63290523D01*
X140666291Y-63211098D01*
X140462230Y-63191000D01*
X139690490Y-63191000D01*
X139762902Y-62952291D01*
X139789720Y-62680000D01*
X139762902Y-62407709D01*
X139683477Y-62145881D01*
X139554499Y-61904580D01*
X139380923Y-61693077D01*
X139169420Y-61519501D01*
X138928119Y-61390523D01*
X138666291Y-61311098D01*
X138462230Y-61291000D01*
X137258801Y-61291000D01*
X138240082Y-60309719D01*
X138351881Y-60369477D01*
X138613709Y-60448902D01*
X138817770Y-60469000D01*
X140462230Y-60469000D01*
X140666291Y-60448902D01*
X140928119Y-60369477D01*
X141169420Y-60240499D01*
X141380923Y-60066923D01*
X141554499Y-59855420D01*
X141683477Y-59614119D01*
X141762902Y-59352291D01*
X141789720Y-59080000D01*
X141762902Y-58807709D01*
X141683477Y-58545881D01*
X141554499Y-58304580D01*
X141380923Y-58093077D01*
X141169420Y-57919501D01*
X140928119Y-57790523D01*
X140666291Y-57711098D01*
X140462230Y-57691000D01*
X139230795Y-57691000D01*
X139271284Y-57664354D01*
X139465974Y-57472369D01*
X139619469Y-57246091D01*
X139725870Y-56994215D01*
X139740286Y-56921814D01*
X139617677Y-56707000D01*
X137767000Y-56707000D01*
X137767000Y-57969000D01*
X138050265Y-57969000D01*
X137899077Y-58093077D01*
X137725501Y-58304580D01*
X137596523Y-58545881D01*
X137517098Y-58807709D01*
X137508861Y-58891337D01*
X134688998Y-61711201D01*
X134660000Y-61734999D01*
X134636202Y-61763997D01*
X134636201Y-61763998D01*
X134565026Y-61850724D01*
X134494454Y-61982754D01*
X134450998Y-62126015D01*
X134436324Y-62275000D01*
X134440001Y-62312332D01*
X134440000Y-70876678D01*
X134436324Y-70914000D01*
X134440000Y-70951322D01*
X134440000Y-70951332D01*
X134446953Y-71021928D01*
X134446000Y-71021928D01*
X134321518Y-71034188D01*
X134201820Y-71070498D01*
X134091506Y-71129463D01*
X133994815Y-71208815D01*
X133915463Y-71305506D01*
X133885000Y-71362497D01*
X133885000Y-56921814D01*
X135539714Y-56921814D01*
X135554130Y-56994215D01*
X135660531Y-57246091D01*
X135814026Y-57472369D01*
X136008716Y-57664354D01*
X136237120Y-57814668D01*
X136490460Y-57917534D01*
X136759000Y-57969000D01*
X137513000Y-57969000D01*
X137513000Y-56707000D01*
X135662323Y-56707000D01*
X135539714Y-56921814D01*
X133885000Y-56921814D01*
X133885000Y-56035000D01*
X135609378Y-56035000D01*
X135554130Y-56165785D01*
G36*
X136110580Y-63840499D02*
G01*
X136351881Y-63969477D01*
X136613709Y-64048902D01*
X136817770Y-64069000D01*
X137589510Y-64069000D01*
X137517098Y-64307709D01*
X137490280Y-64580000D01*
X137517098Y-64852291D01*
X137596523Y-65114119D01*
X137725501Y-65355420D01*
X137899077Y-65566923D01*
X138110580Y-65740499D01*
X138351881Y-65869477D01*
X138613709Y-65948902D01*
X138817770Y-65969000D01*
X138908001Y-65969000D01*
X138908001Y-66884420D01*
X138666291Y-66811098D01*
X138462230Y-66791000D01*
X136817770Y-66791000D01*
X136613709Y-66811098D01*
X136351881Y-66890523D01*
X136110580Y-67019501D01*
X135960000Y-67143079D01*
X135960000Y-63716921D01*
X136110580Y-63840499D01*
X136110580Y-63840499D01*
G37*
X136110580Y-63840499D02*
X136351881Y-63969477D01*
X136613709Y-64048902D01*
X136817770Y-64069000D01*
X137589510Y-64069000D01*
X137517098Y-64307709D01*
X137490280Y-64580000D01*
X137517098Y-64852291D01*
X137596523Y-65114119D01*
X137725501Y-65355420D01*
X137899077Y-65566923D01*
X138110580Y-65740499D01*
X138351881Y-65869477D01*
X138613709Y-65948902D01*
X138817770Y-65969000D01*
X138908001Y-65969000D01*
X138908001Y-66884420D01*
X138666291Y-66811098D01*
X138462230Y-66791000D01*
X136817770Y-66791000D01*
X136613709Y-66811098D01*
X136351881Y-66890523D01*
X136110580Y-67019501D01*
X135960000Y-67143079D01*
X135960000Y-63716921D01*
X136110580Y-63840499D01*
M02*
