M48
; DRILL file {KiCad (5.1.0)-1} date 7/29/2019 2:48:31 PM
; FORMAT={-:-/ absolute / inch / decimal}
; #@! TF.CreationDate,2019-07-29T14:48:31-04:00
; #@! TF.GenerationSoftware,Kicad,Pcbnew,(5.1.0)-1
FMAT,2
INCH
T1C0.0157
T2C0.0315
T3C0.0394
T4C0.1260
%
G90
G05
T1
X5.374Y-2.5591
X5.4264Y-2.7661
X5.9252Y-2.6378
X5.9449Y-2.7559
X6.0177Y-2.7894
X6.2205Y-2.7953
X6.4862Y-2.6181
X6.5748Y-2.628
T3
X6.0149Y-2.63
X6.06Y-2.53
X6.06Y-2.73
X6.1051Y-2.63
X6.1502Y-2.53
X6.1502Y-2.73
X6.1952Y-2.63
X6.2403Y-2.53
X6.2403Y-2.73
X6.2854Y-2.63
X6.3305Y-2.53
X6.3305Y-2.73
X6.3756Y-2.63
X6.4206Y-2.53
X6.4206Y-2.73
T4
X5.7378Y-2.63
X6.722Y-2.63
T2
G00X5.3953Y-2.2276
M15
G01X5.4425Y-2.2276
M16
G05
G00X5.3953Y-2.4677
M15
G01X5.4425Y-2.4677
M16
G05
G00X5.3953Y-2.6843
M15
G01X5.4425Y-2.6843
M16
G05
G00X5.474Y-2.326
M15
G01X5.5213Y-2.326
M16
G05
G00X5.474Y-2.5425
M15
G01X5.5213Y-2.5425
M16
G05
T0
M30
