G04 #@! TF.GenerationSoftware,KiCad,Pcbnew,(5.1.0)-1*
G04 #@! TF.CreationDate,2019-07-29T14:48:28-04:00*
G04 #@! TF.ProjectId,HD15-to-SCART,48443135-2d74-46f2-9d53-434152542e6b,rev?*
G04 #@! TF.SameCoordinates,Original*
G04 #@! TF.FileFunction,Legend,Top*
G04 #@! TF.FilePolarity,Positive*
%FSLAX46Y46*%
G04 Gerber Fmt 4.6, Leading zero omitted, Abs format (unit mm)*
G04 Created by KiCad (PCBNEW (5.1.0)-1) date 2019-07-29 14:48:28*
%MOMM*%
%LPD*%
G04 APERTURE LIST*
%ADD10C,0.127000*%
%ADD11C,0.340000*%
%ADD12C,0.120000*%
%ADD13C,0.150000*%
G04 APERTURE END LIST*
D10*
X141840000Y-55380000D02*
X141840000Y-69380000D01*
X141840000Y-69380000D02*
X133640000Y-69380000D01*
X133640000Y-69380000D02*
X133640000Y-55380000D01*
X133640000Y-55380000D02*
X135540000Y-55380000D01*
X135540000Y-55380000D02*
X135540000Y-51380000D01*
X135540000Y-51380000D02*
X141540000Y-51380000D01*
X141540000Y-51380000D02*
X141540000Y-55380000D01*
X141540000Y-55380000D02*
X141840000Y-55380000D01*
D11*
X142610000Y-56580000D02*
G75*
G03X142610000Y-56580000I-170000J0D01*
G01*
D12*
X133221000Y-75660000D02*
X133221000Y-73120000D01*
X133221000Y-75660000D02*
X133221000Y-75723500D01*
X133221000Y-75723500D02*
X174115000Y-75723500D01*
X174115000Y-75723500D02*
X174115000Y-71659500D01*
X133221000Y-73120000D02*
X133221000Y-71659500D01*
X173724000Y-55372000D02*
X173724000Y-70982000D01*
X173724000Y-70982000D02*
X142754000Y-70982000D01*
X142754000Y-70982000D02*
X142754000Y-55372000D01*
X154174000Y-71876338D02*
X153674000Y-71876338D01*
X153674000Y-71876338D02*
X153924000Y-71443325D01*
X153924000Y-71443325D02*
X154174000Y-71876338D01*
D13*
X135776103Y-64702955D02*
X135776103Y-65703448D01*
X135709403Y-65903546D01*
X135576004Y-66036945D01*
X135375906Y-66103645D01*
X135242507Y-66103645D01*
X136376399Y-64836354D02*
X136443098Y-64769655D01*
X136576497Y-64702955D01*
X136909995Y-64702955D01*
X137043394Y-64769655D01*
X137110093Y-64836354D01*
X137176793Y-64969753D01*
X137176793Y-65103152D01*
X137110093Y-65303251D01*
X136309699Y-66103645D01*
X137176793Y-66103645D01*
X154477666Y-70032380D02*
X154477666Y-70746666D01*
X154430047Y-70889523D01*
X154334809Y-70984761D01*
X154191952Y-71032380D01*
X154096714Y-71032380D01*
X154858619Y-70032380D02*
X155477666Y-70032380D01*
X155144333Y-70413333D01*
X155287190Y-70413333D01*
X155382428Y-70460952D01*
X155430047Y-70508571D01*
X155477666Y-70603809D01*
X155477666Y-70841904D01*
X155430047Y-70937142D01*
X155382428Y-70984761D01*
X155287190Y-71032380D01*
X155001476Y-71032380D01*
X154906238Y-70984761D01*
X154858619Y-70937142D01*
X165892166Y-67397380D02*
X165892166Y-68111666D01*
X165844547Y-68254523D01*
X165749309Y-68349761D01*
X165606452Y-68397380D01*
X165511214Y-68397380D01*
X166892166Y-68397380D02*
X166320738Y-68397380D01*
X166606452Y-68397380D02*
X166606452Y-67397380D01*
X166511214Y-67540238D01*
X166415976Y-67635476D01*
X166320738Y-67683095D01*
M02*
